<?xml version="1.0" encoding="iso-8859-1"?>
<!-- Generator: Adobe Illustrator 21.0.0, SVG Export Plug-In . SVG Version: 6.00 Build 0)  -->
<svg version="1.1" id="Layer_1" xmlns="http://www.w3.org/2000/svg" xmlns:xlink="http://www.w3.org/1999/xlink" x="0px" y="0px"
	 viewBox="0 0 100.354 100.352" style="enable-background:new 0 0 100.354 100.352;" xml:space="preserve">
<path d="M49.695,10.704c-0.234-0.013-1.33,0.002-1.391,0.004C27.121,11.125,9.992,28.346,9.73,49.565
	c-0.003,0.263-0.011,1.161,0.012,1.438c0.5,21.01,17.531,37.988,38.562,38.402c0.153,0.005,0.305,0.02,0.459,0.02
	c0.04,0,0.08-0.005,0.12-0.005c0.069,0,0.136,0.005,0.205,0.005c21.708,0,39.369-17.661,39.369-39.37
	C88.457,28.552,71.123,11.031,49.695,10.704z M85.424,48.774H70.976c-0.256-14.822-4.925-27.333-11.818-33.656
	C73.933,19.383,84.866,32.778,85.424,48.774z M47.588,13.763v35.011H29.55C29.895,30.054,37.754,14.89,47.588,13.763z
	 M47.588,51.774v34.577c-9.758-1.119-17.574-16.056-18.032-34.577H47.588z M50.588,86.257V51.774h17.383
	C67.523,69.882,60.041,84.566,50.588,86.257z M50.588,48.774V13.857c9.529,1.705,17.051,16.611,17.389,34.917H50.588z M38.05,15.405
	c-6.721,6.413-11.248,18.774-11.5,33.368h-13.8C13.296,33.128,23.766,19.965,38.05,15.405z M12.762,51.774h13.795
	c0.334,14.406,4.841,26.585,11.495,32.934C23.898,80.19,13.484,67.229,12.762,51.774z M59.157,84.996
	c6.827-6.262,11.474-18.59,11.813-33.222h14.443C84.674,67.579,73.799,80.769,59.157,84.996z"/>
</svg>
